<?xml version="1.0"?><svg version="1.2" baseProfile="tiny-ps" viewBox="0 0 300 300" xmlns="http://www.w3.org/2000/svg" xmlns:xlink="http://www.w3.org/1999/xlink"><title>PhishRadar</title><g><g fill="#dde0f2" transform="matrix(.1 0 0 -.1 0 300)"><path d="M0 1500V0h3000v3000H0V1500z"/></g><g fill="#ac6cde" transform="matrix(.1 0 0 -.1 0 300)"><path d="M0 1500V0h3000v3000H0V1500zm1383 1173c-7-2-21-2-30 0l-18 5h60l-12-5zm-100-10c-7-2-19-2-25 0l-13 5h50l-12-5zm-108-19c-27-7-54-13-60-13-17 2 69 27 90 27h20l-50-14zm-108-30c-3-3-12-4-19-1l-13 5 19 1c11 1 17-2 13-5zm-137-54c-8-5-19-10-25-10h-10l15 10c8 5 20 10 25 10h10l-15-10zm-90-45c0-2-10-9-22-15l-23-11 19 15c21 17 26 19 26 11zm766-71c44-21 71-55 85-108l11-41-11-45-12-45-22-23c-12-13-40-31-63-41l-41-19-6-53c-4-30-7-91-7-136v-81l15-74c8-40 28-118 45-173s34-110 37-122l5-23 52-2 51-2-47-3c-27-2-48-7-48-11 1-4 7-34 15-67s21-91 30-130l17-70-4-76-4-76-32-67c-18-37-46-85-62-106l-31-39-50-31-51-31-61-16-62-15-60 6-59 6-62 29-61 29-42 37-41 37-32 66-33 66-3 102-4 102 11 128c11 132 28 210 59 286l19 42-5-111-4-111 11-66c6-36 20-86 31-112l20-46 65-67c36-37 65-70 65-73 0-4-30 4-67 15l-66 22-30 28-30 27 5-78 4-78 29-53 29-52 38-30 38-30 55-20 55-19h98l49 21 48 20 43 42c70 68 96 126 108 237l3 35-15 72c-9 40-19 71-22 69-4-2-7 10-8 28 0 18-9 53-20 79l-19 47-40 2-40 1 38 4c20 2 37 7 37 10 0 4-9 32-19 62-11 31-31 101-44 156l-25 100-5 110c-2 61-1 139 3 175l7 65-10 13c-5 7-12 10-15 8-5-6-44 40-62 73l-12 24v94l12 24c14 26 60 84 60 75 0-3 10-1 23 4 12 5 42 9 65 9l44 1 34-16zm-956-68c0-2-8-10-17-17l-18-14 14 18c13 16 21 21 21 13zm-100-100c0-2-8-10-17-17l-18-14 14 18c13 16 21 21 21 13zm877-343-4-38v150l4-37c2-21 2-55 0-75zm0-120-4-28v100l4-22c2-13 2-35 0-50zm1011-350c-16-2-40-2-55 0l-28 4h110l-27-4zm142-400-12-18 6 18c3 10 6 24 7 30l1 12 4-12c3-7 0-20-6-30zm-40-101c0-5-7-17-15-28l-15-19 11 28c12 27 19 34 19 19zM1475 2355l-25-24v-67l28-27 28-27h63l20 26 21 27v74l-23 21-23 22h-65l-24-25z"/></g><g fill="#4187af" transform="matrix(.1 0 0 -.1 0 300)"><path d="M0 1500V0h3000v3000H0V1500zm1440 1261v-70l53-5c28-3 66-8 82-10l30-4h-65c-36 0-74 0-85-1l-20-1 3-75 4-75 41-2 42-1-42-4-43-4v-70l19 11 20 10h102l29-15c16-8 41-30 55-49l26-34 6-36c3-19 2-51-1-70l-7-35-26-32-27-31-41-18-42-18-6-53c-4-30-7-91-7-136v-81l15-74c8-40 28-118 45-173s34-110 37-122l5-23 52-2 51-2-48-3-47-4 11-21c11-21 44-164 57-248l7-44 28 29c33 35 65 93 83 150l13 40v-20c1-31-53-139-92-181l-34-39-8-50c-9-62-30-118-67-173l-28-43 22 6c13 4 52 20 88 37l65 31 80 81 81 81 43 87 43 87 14 73 14 73-5-59-6-59-26-66c-36-91-86-165-161-238l-63-62-81-41c-44-22-86-40-92-40-7 0-41-20-76-45-35-24-78-49-97-56l-33-11V620h24c48 0 197 31 260 54 36 12 100 43 142 67l77 44 68 63 68 63 46 69c25 38 61 102 80 143l34 73 16 70c8 38 20 96 25 129l9 60-4-68c-2-38-12-98-21-135l-16-67-42-90-43-90-60-76-61-76-72-57-72-56-82-40-81-40-80-20c-43-11-110-23-147-27l-68-6V407l83 6c158 13 317 66 467 159l84 52 82 78 82 79 50 72c125 181 180 345 197 586 5 73 15 110 15 58v-27h25l-11-8-12-7-7-85-7-85-24-95-24-95-55-110-55-110-72-89-72-89-78-61c-178-141-349-212-568-237-52-6-95-11-95-12-1-1 1-30 3-64l4-63h61c232 0 535 130 736 316 230 213 366 492 390 801l8 103-8 103-9 102-24 90c-13 50-23 92-21 93 7 7 44-134 60-222l15-89v-222l-15-88c-82-468-447-858-915-977-44-11-128-26-186-32l-104-12-2-66-2-65-3 66-4 65-107 12-107 12-86 24c-114 31-231 82-336 148l-87 53-111 110-112 110-43 65c-63 97-115 204-150 310l-31 95-15 95c-7 52-14 116-14 143v47H101l-6 10-6 10h131v48c0 63 25 212 49 292 61 204 168 380 325 534l81 79 90 60c104 69 199 115 313 151 84 26 246 56 307 56h35l1 13c0 6 1 38 1 70l1 57h17v-69zm213-98c-7-2-21-2-30 0l-18 5h60l-12-5zm44-9c-3-3-12-4-19-1l-13 5 19 1c11 1 17-2 13-5zm40-10c-3-3-12-4-19-1l-13 5 19 1c11 1 17-2 13-5zm58-14 20-9h-15c-8 0-24 4-35 9l-20 9h15c8 0 24-4 35-9zm55-20 15-10h-10c-5 0-17 5-25 10l-15 10h10c6 0 17-5 25-10zm60-25c14-8 21-14 15-14-5 0-21 6-35 14s-20 14-15 14c6 0 21-6 35-14zm70-30c17-9 30-18 30-21 0-4-59 23-69 32s13 3 39-11zm144-88c67-45 202-171 249-232 17-22-10 3-60 55l-91 96-85 59c-46 33-93 66-103 73l-19 12 25-11c14-7 52-30 84-52zm-507 37c-3-3-12-4-19-1l-13 5 19 1c11 1 17-2 13-5zm100-20c-3-3-12-4-19-1l-13 5 19 1c11 1 17-2 13-5zm213-90c0-2-9 0-20 6s-20 13-20 16c0 2 9 0 20-6s20-13 20-16zm191-131 14-18-17 14c-10 7-18 15-18 17 0 8 8 3 21-13zm322-122c27-46 14-38-18 12-16 23-22 37-14 30 8-6 22-25 32-42zm-198-1c10-11 16-20 13-20s-13 9-23 20-16 20-13 20 13-9 23-20zm235-60c6-11 8-20 6-20-3 0-10 9-16 20s-8 20-6 20c3 0 10-9 16-20zm-100-154c0-12-5-7-19 24l-12 25 15-19c9-11 16-24 16-30zm179-11c0-5-6 1-14 15s-14 30-14 35c0 6 6-1 14-15s14-29 14-35zm-102-227-5-13-1 19c-1 11 2 17 5 13 3-3 4-12 1-19zm10-50-5-13v50l5-12c2-7 2-19 0-25zm10-65-5-18v60l5-12c2-7 2-21 0-30zm-39-110c-16-2-40-2-55 0l-28 4h110l-27-4zm119 1c-3-3-12-4-19-1l-13 5 19 1c11 1 17-2 13-5zm190 0c-3-3-12-4-19-1l-13 5 19 1c11 1 17-2 13-5zm40 0c-3-3-12-4-19-1l-13 5 19 1c11 1 17-2 13-5zm-930-91-5-18v60l5-12c2-7 2-21 0-30zm-572 1286c-216-25-456-136-631-290-241-212-382-496-409-821l-7-78h139l6 81 7 82 25 96 26 96 49 100 50 100 65 87 66 87 81 70 81 69 74 42c139 80 282 125 430 137l83 6v147l-32-1c-18-1-64-5-103-10zm55-155c-14-2-56-9-95-15l-70-11-95-35c-158-59-262-127-386-255l-81-83-45-70c-101-157-155-317-172-507l-5-58h199v33c0 17 9 73 19 122l18 90 32 74c114 269 345 452 643 511l56 11 6 23c3 12 16 38 29 57 25 37 38 84 30 106l-5 13-27-1c-14-1-37-3-51-5zm135-149-25-26v-67l31-26 31-26h18c47 0 80 41 80 99v30l-26 20-27 21h-56l-26-25zm-150-63c-62-7-153-35-234-73l-85-40-72-54c-122-92-216-217-274-367l-30-76-15-87c-8-48-15-96-15-106v-19h185l17 91 17 92 40 81 39 81 45 56 44 55 64 49c97 73 232 127 314 124l30-1-75-13-74-14-86-42-85-42-80-81-81-81-41-85-42-85-15-77c-9-42-16-84-16-93v-15h176l23 73c12 39 37 99 56 133l34 60 50 48 51 47 61 29 62 29 53 7 53 6 4 77 3 76v-310l-3 74-4 73-52-6-52-7-62-30-62-30-44-43c-24-23-56-62-70-87l-26-44-7-86-7-86 24-6c13-4 45-7 71-7h48l6 28c14 64 27 91 60 131l36 42 39 19c21 11 46 20 56 20l18-1-38-13c-20-8-53-26-72-40l-35-27-24-47c-13-26-26-61-27-77l-4-30 79-3 79-3 8 13 9 13v-24l23-4 22-4-27-2-26-1-5-12-5-13-1 13-1 12h-303l5-64 6-64 26-57 26-58 65-72 65-73-16-6c-22-9-26-8-18 6l7 11-21-5-22-6v17l-17-6-16-6 8 13 8 13-14-5-14-5-37 18c-21 11-40 19-44 19h-7l6-48c3-26 13-67 22-89l16-41 52-23c29-12 86-33 127-45 41-13 66-23 55-23s-65 15-120 33l-100 34 43-39 43-38 49-16 48-16 68 3 67 3 4 12 4 12-43 4-43 4 43 1 42 2v159l-22 4-23 4 23 2 22 1v189l-27 4-28 4 27 2 27 1 4 83 3 82 2-82 2-82 33-4 32-4-32-1-33-2v-189l38-4 37-4-37-1-38-2V850h53l34 26 33 25 30 52c16 29 30 60 30 71v18l-17-7c-10-4-34-9-53-11l-35-4 49 14 50 14 13 18 13 18v45c0 40-10 92-26 140l-5 14-27-26c-38-37-48-34-11 3l30 30-6 42c-4 24-13 56-21 72-7 16-11 32-8 37l5 9-68 2-68 2 63 3c34 2 62 7 62 10 0 4-9 32-19 62-11 31-32 102-46 159l-26 103v157c-1 86 1 166 3 177l3 20h-30l-29 39c-15 21-33 55-40 75l-11 36-30-3zm-121-901 6-39 32-43 33-42 44-24c24-13 39-23 32-23-35 0-114 66-142 120-7 14-16 42-19 62l-7 37 7-4c4-3 10-22 14-44zm245 22-1-28-5 15c-3 8-12 21-21 28l-16 12h44l-1-27zm-19-3c0-5-2-10-4-10-3 0-8 5-11 10l-6 10h10c6 0 11-4 11-10zm-143-376c-3-3-12-4-19-1l-13 5 19 1c11 1 17-2 13-5zm56-11c-7-2-21-2-30 0l-18 5h60l-12-5zm-906 430-48-4 6-62c26-265 123-479 298-664l71-75 98-65 97-65 88-34 88-35 97-19c53-11 117-20 142-20h46v197l-67 7c-319 32-574 219-695 509l-30 71-19 90c-10 50-19 110-19 134v42l-52-2c-29-1-75-3-101-5zm167-65c3-40 13-102 22-138l16-65 48-100 48-100 62-73 61-72 67-51c121-92 266-147 425-163l67-7v106h-185l-69 33-70 33-37 39-37 39-27 58c-31 67-26 58-90 154l-49 74-23 63-23 63-12 90-12 89H597l7-72zm200 10c15-132 68-271 131-343l26-30-5 40c-3 22-1 116 5 209l10 169-13 9-13 8H797l7-62zm-558-35c13-178 59-333 146-493 54-99 115-178 211-272l78-78 82-54c192-126 400-199 597-208l55-2 3 67c2 37 0 67-3 67s-49 5-103 11l-97 11-95 30c-215 69-372 179-522 367l-59 73-49 102-49 101-26 99-25 98-7 84-6 84H239l7-87zm1192-530c7-3 16-2 19 1 4 3-2 6-13 5l-19-1 13-5z"/></g><g fill="#9f2953" transform="matrix(.1 0 0 -.1 0 300)"><path d="M0 1500V0h3000v3000H0V1500zm1440 1261v-69l78-7c510-45 922-376 1076-864 31-97 56-234 56-302v-49h191l-6-10-6-10h-179v-57c0-187-94-458-218-633-63-88-191-220-271-279-186-138-388-217-627-243l-104-12-2-66-2-65-3 66-4 65-107 12-107 12-86 24c-114 31-231 82-336 148l-87 53-111 110-112 110-43 65c-63 97-115 204-150 310l-31 95-15 95c-7 52-14 116-14 143v47H101l-6 10-6 10h131v48c0 63 25 212 49 292 61 204 168 380 325 534l81 79 90 60c104 69 199 115 313 151 84 26 246 56 307 56h35l1 13c0 6 1 38 1 70l1 57h17v-69zm-155-102c-216-25-456-136-631-290-241-212-382-496-409-821l-7-78h139l6 81 7 82 25 96 26 96 49 100 50 100 65 87 66 87 81 70 81 69 74 42c139 80 282 125 430 137l83 6v147l-32-1c-18-1-64-5-103-10zm153-63 3-73 85-7c47-3 106-11 132-17 80-17 124-30 120-35-3-2-40 5-83 16s-90 19-104 19l-26-2 22-4 22-4 45-46 45-46 17-43 16-43-5-21-5-21 49-24c27-14 49-27 49-30s-20 5-45 17l-45 22-9-10c-5-5-11-25-15-45l-6-35 36-25 36-24 20-55c11-30 20-64 21-75l2-20 48-39 47-38 45-63c54-74 88-149 105-228l13-58 9 16c5 8 9 26 8 38s-2 28-1 36l1 13 16-13c9-7 21-25 26-39l10-25 7 19 7 18 31-26 30-25 7 6c3 3 6 22 7 42v36l10-24c5-14 14-47 19-75l9-51-5 68c-3 38-14 99-24 135-22 78-19 95 3 25 20-60 37-155 37-202v-36h190v56c0 162-68 365-177 531l-44 67-71 71c-82 82-161 141-268 199-41 22-70 41-65 41 6 0 46-20 89-45 262-149 429-359 511-641l26-89 11-95 11-95 61 2c34 1 64 2 69 2l7 1v58c0 139-51 324-133 486l-51 100-58 77c-172 229-438 393-730 453l-77 16h-146l3-74zm382-146 15-10h-10c-5 0-17 5-25 10l-15 10h10c6 0 17-5 25-10zm128-318 37-33-45 33c-25 18-57 41-70 51l-25 18 33-18c19-10 50-33 70-51zm144-141c32-40 68-92 78-115 11-22 15-32 8-22s-30 44-50 75-60 83-89 116c-30 33-43 51-30 40s51-53 83-94zm128-216v-10l-10 15c-5 8-10 20-10 25v10l10-15c5-8 10-19 10-25zm-880 728c-83-8-201-37-280-68-147-57-250-126-371-251l-76-79-45-70c-101-157-155-317-172-507l-5-58h199v33c0 17 9 73 19 122l18 90 32 74c79 187 225 343 406 433 48 25 145 57 232 78l42 10 15 48 16 47 25 27 25 27v51l-22-2c-13 0-39-3-58-5zm100-13c0-23 13-26 30-6 6 8 21 17 33 19l22 4-42 2-43 1v-20zm-204-216c-32-8-97-32-144-54l-86-41-72-54c-122-92-216-217-274-367l-30-76-15-87c-8-48-15-96-15-106v-19h185l17 91 17 91 35 74c100 211 266 335 499 375l67 11v9c0 5-4 9-9 9-12 0-71 114-71 139v21l-22-1c-13 0-49-7-82-15zm35-200c-29-8-86-31-125-51l-71-37-80-80-81-81-41-85-42-85-15-77c-9-42-16-84-16-93v-15h176l23 73c12 39 37 99 56 133l34 60 50 48 51 47 61 29 62 29 53 7 54 6v188l-47-1c-27 0-72-7-102-15zm499-78c0-3 9-10 20-16s20-8 20-6c0 3-9 10-20 16s-20 8-20 6zm20-45c6-12 14-21 18-21h8l1-72c1-40 4-88 6-105l4-33 16-18c10-10 17-27 17-38v-20l20-17c11-9 24-17 29-17s14-7 21-15l12-15 9 6c5 2 22-2 38-11 17-8 37-15 46-15h17l-7 43c-4 23-24 79-46 125l-38 83-68 68c-37 37-78 73-91 80l-24 13 12-21zm-471-75c-94-25-192-101-242-187l-26-44-7-86-7-86 24-6c13-4 45-7 71-7h48l6 28c14 64 27 91 60 131l36 42 37 18c20 10 51 22 69 26l32 7v73c0 40-3 80-6 89l-6 16-22-1c-11 0-42-6-67-13zm111-149v-166l-11-7-12-7 5 77 5 76h-11c-25-1-89-30-121-54l-35-27-24-47c-13-26-26-61-27-77l-4-30 73-3 74-3 14 12 14 11v-24l33 7c17 4 34 9 36 11 6 5 1 407-5 413-2 2-4-70-4-162zm-40-217c-6-11-13-20-16-20-2 0 0 9 6 20s13 20 16 20c2 0 0-9-6-20zm27-22-5-13-1 19c-1 11 2 17 5 13 3-3 4-12 1-19zm631 32c2-16 6-30 8-30s4 14 4 30v30h-17l5-30zm-1611-67-48-4 6-62c26-265 123-479 298-664l71-75 98-65 97-65 88-34 88-35 97-19c53-11 117-20 142-20h46v197l-67 7c-319 32-574 219-695 509l-30 71-19 90c-10 50-19 110-19 134v42l-52-2c-29-1-75-3-101-5zm167-65c3-40 13-102 22-138l16-65 48-100 48-100 62-73 61-72 67-51c121-92 266-147 425-163l67-7v106h-185l-69 33-70 33-37 39-37 39-27 58c-31 67-26 58-90 154l-49 74-23 63-23 63-12 90-12 89H597l7-72zm200 10c15-132 68-271 131-343l26-30-5 40c-3 22-1 116 5 209l10 169-13 9-13 8H797l7-62zm616 52c0-5 5-10 11-10h10l-6 10c-3 6-8 10-11 10-2 0-4-4-4-10zm857-59c-3-38-13-100-22-138l-17-68-43-90-42-90-58-73-58-74-73-58-74-59-83-41-82-40-80-20c-43-11-110-23-147-27l-68-6V407l83 6c158 13 317 66 467 159l84 52 82 78 82 79 50 72c118 171 192 381 192 547v45l-87-2-88-2-6 10-6 10-6-70zm-2031-28c13-178 59-333 146-493 54-99 115-178 211-272l78-78 82-54c192-126 400-199 597-208l55-2 3 67c2 37 0 67-3 67s-49 5-103 11l-97 11-95 30c-215 69-372 179-522 367l-59 73-49 102-49 101-26 99-25 98-7 84-6 84H239l7-87zm806 23 6-64 26-57 26-58 65-72 65-73-16-6c-22-9-26-8-18 6l7 11-21-5-22-6v17l-17-6-16-6 8 13 8 13-14-5-14-5-37 18c-21 11-40 19-44 19h-7l6-48c3-26 13-67 22-89l16-41 52-23c29-12 86-33 127-45 41-13 66-23 55-23s-65 15-120 33l-100 34 43-39 43-38 49-16 48-16 68 3 67 3 4 12 4 12-43 4-43 4 43 1 42 2v159l-22 4-23 4 23 2 22 1v189l-27 4-28 4 28 2 27 1v84c0 46-3 98-6 115l-6 31h-47l-4-17-5-18-1 18-1 17h-303l5-64zm152 5 6-39 32-43 33-42 44-24c24-13 39-23 32-23-35 0-114 66-142 120-7 14-16 42-19 62l-7 37 7-4c4-3 10-22 14-44zm83-357c-3-3-12-4-19-1l-13 5 19 1c11 1 17-2 13-5zm56-11c-7-2-21-2-30 0l-18 5h60l-12-5zm1142 343c-4-45-18-123-31-176l-24-95-55-110-55-110-72-89-72-89-78-61c-178-141-349-212-568-237-52-6-95-11-95-12-1-1 1-30 3-64l4-63h61c232 0 535 130 736 316 226 209 369 499 388 787l6 88-70-2-71-3-7-80zm-592 66-32-3-4-37-4-37-1 38-2 37h-150l-12-25-11-25 21-102c12-57 23-112 24-123l3-19 28 29c33 35 65 93 83 150l13 40v-20c1-31-53-139-92-181l-34-39-8-50c-9-62-30-118-67-173l-28-43 22 6c13 4 52 20 88 37l65 31 80 81 81 81 43 87 43 87 14 73 14 73-5-59-6-59-26-66c-36-91-86-165-161-238l-63-62-81-41c-44-22-86-40-92-40-7 0-41-20-76-45-35-24-78-49-97-56l-33-11V620h24c48 0 197 31 260 54 36 12 100 43 142 67l77 44 68 63 68 63 46 69c25 38 61 103 81 144l35 76 19 93c11 50 20 104 20 120v27h-190v-17l-1-18-12 16-12 17-65-2c-36 0-79-2-97-4zm-465-106 3-105 32-4 32-4-32-1-33-2v-189l38-4 37-4-37-1-38-2V850h53l34 26 33 25 30 52c16 29 30 60 30 71v18l-17-7c-10-4-34-9-53-11l-35-4 49 14 50 14 13 18 13 18v45c0 40-10 92-26 140l-5 14-27-26c-39-37-48-34-11 3l30 30-5 33c-10 65-34 89-98 101l-38 7-1-23v-23l-9 23c-5 12-11 22-12 22-2 0-2-47 0-104zm10-493c7-3 16-2 19 1 4 3-2 6-13 5l-19-1 13-5z"/></g><g fill="#45477c" transform="matrix(.1 0 0 -.1 0 300)"><path d="M0 1500V0h3000v3000H0V1500zm1440 1261v-69l78-7c510-45 922-376 1076-864 31-97 56-234 56-302v-49h191l-6-10-6-10h-179v-57c0-187-94-458-218-633-63-88-191-220-271-279-186-138-388-217-627-243l-104-12-2-66-2-65-3 66-4 65-107 12-107 12-86 24c-114 31-231 82-336 148l-87 53-111 110-112 110-43 65c-63 97-115 204-150 310l-31 95-15 95c-7 52-14 116-14 143v47H101l-6 10-6 10h131v48c0 63 25 212 49 292 61 204 168 380 325 534l81 79 90 60c104 69 199 115 313 151 84 26 246 56 307 56h35l1 13c0 6 1 38 1 70l1 57h17v-69zm-155-102c-216-25-456-136-631-290-241-212-382-496-409-821l-7-78h139l6 81 7 82 25 96 26 96 49 100 50 100 65 87 66 87 81 70 81 69 74 42c139 80 282 125 430 137l83 6v147l-32-1c-18-1-64-5-103-10zm153-63 3-73 85-7c47-3 106-11 132-17 80-17 124-30 120-35-3-2-40 5-83 16s-90 19-104 19l-26-2 22-4 22-4 45-46 45-46 17-43 16-43-5-21-5-21 49-24c27-14 49-27 49-30s-20 5-45 17l-45 22-9-10c-5-5-11-25-15-45l-6-35 36-25 36-24 20-55c11-30 20-64 21-75l2-20 48-39 47-38 45-63c54-74 88-149 105-228l13-58 9 16c5 8 9 26 8 38s-2 28-1 36l1 13 16-13c9-7 21-25 26-39l10-25 7 19 7 18 31-26 30-25 7 6c3 3 6 22 7 42v36l10-24c5-14 14-47 19-75l9-51-5 68c-3 38-14 99-24 135-22 78-19 95 3 25 20-60 37-155 37-202v-36h190v56c0 162-68 365-177 531l-44 67-71 71c-82 82-161 141-268 199-41 22-70 41-65 41 6 0 46-20 89-45 262-149 429-359 511-641l26-89 11-95 11-95 61 2c34 1 64 2 69 2l7 1v58c0 139-51 324-133 486l-51 100-58 77c-172 229-438 393-730 453l-77 16h-146l3-74zm382-146 15-10h-10c-5 0-17 5-25 10l-15 10h10c6 0 17-5 25-10zm128-318 37-33-45 33c-25 18-57 41-70 51l-25 18 33-18c19-10 50-33 70-51zm144-141c32-40 68-92 78-115 11-22 15-32 8-22s-30 44-50 75-60 83-89 116c-30 33-43 51-30 40s51-53 83-94zm128-216v-10l-10 15c-5 8-10 20-10 25v10l10-15c5-8 10-19 10-25zm-880 728c-83-8-201-37-280-68-147-57-250-126-371-251l-76-79-45-70c-101-157-155-317-172-507l-5-58h199v33c0 17 9 73 19 122l18 90 32 74c79 187 225 343 406 433 48 25 145 57 232 78l42 10 15 48 16 47 25 27 25 27v51l-22-2c-13 0-39-3-58-5zm100-13c0-23 13-26 30-6 6 8 21 17 33 19l22 4-42 2-43 1v-20zm-204-216c-32-8-97-32-144-54l-86-41-72-54c-122-92-216-217-274-367l-30-76-15-87c-8-48-15-96-15-106v-19h185l17 91 17 91 35 74c100 211 266 335 499 375l67 11v9c0 5-4 9-9 9-12 0-71 114-71 139v21l-22-1c-13 0-49-7-82-15zm35-200c-29-8-86-31-125-51l-71-37-80-80-81-81-41-85-42-85-15-77c-9-42-16-84-16-93v-15l58 1 57 1-23 6-23 7 32 50c17 28 52 71 77 98l46 47h35l15 28c8 15 37 49 65 75l51 48 61 29 62 29 53 7 54 6v188l-47-1c-27 0-72-7-102-15zm499-78c0-3 9-10 20-16s20-8 20-6c0 3-9 10-20 16s-20 8-20 6zm20-45c6-12 14-21 18-21h8l1-72c1-40 4-88 6-105l4-33 16-18c10-10 17-27 17-38v-20l20-17c11-9 24-17 29-17s14-7 21-15l12-15 9 6c5 2 22-2 38-11 17-8 37-15 46-15h17l-7 43c-4 23-24 79-46 125l-38 83-68 68c-37 37-78 73-91 80l-24 13 12-21zm-463-72c-46-11-88-32-145-73l-44-31-32-45c-18-25-36-53-39-63l-7-18 9 5 9 6 20-49c12-26 27-69 34-95l12-47 20 3 19 3 12 48 12 48 30 37c39 48 87 80 140 94l43 10v73c0 41-3 80-6 89l-6 16-22-1c-11-1-38-5-59-10zm103-152v-166l-11-7-12-7 5 77 5 76h-11c-25-1-89-30-121-54l-35-27-24-47c-13-26-26-61-27-77l-4-30 73-3 74-3 14 12 14 11v-24l33 7c17 4 34 9 36 11 6 5 1 407-5 413-2 2-4-70-4-162zm-40-217c-6-11-13-20-16-20-2 0 0 9 6 20s13 20 16 20c2 0 0-9-6-20zm27-22-5-13-1 19c-1 11 2 17 5 13 3-3 4-12 1-19zm631 32c2-16 6-30 8-30s4 14 4 30v30h-17l5-30zm-1611-67-48-4 6-62c26-265 123-479 298-664l71-75 98-65 97-65 88-34 88-35 97-19c53-11 117-20 142-20h46v197l-71 7c-39 4-100 14-136 21l-66 14-81 39-81 39-77 62-77 62-60 80-61 80-35 73-35 73-20 79c-11 44-23 112-27 152l-6 72-51-2c-28-1-73-3-99-5zm167-65c3-40 13-102 22-138l16-65 48-100 48-100 60-70c55-65 116-120 152-139 8-4 0 6-17 23l-33 31v19c0 11-14 55-31 98l-32 78-1 86-1 87-9-6-9-5 5 14 5 14-18 90c-10 50-19 105-19 123v32H597l7-72zm200 10c9-78 26-150 38-163l9-10-8 30c-9 34-8 69 2 138l8 47h8c5 0 9 5 9 10v10h-73l7-62zm616 52c0-5 5-10 11-10h10l-6 10c-3 6-8 10-11 10-2 0-4-4-4-10zm857-59c-3-38-13-100-22-138l-17-68-43-90-42-90-58-73-58-74-73-58-74-59-83-41-82-40-80-20c-43-11-110-23-147-27l-68-6V407l83 6c158 13 317 66 467 159l84 52 82 78 82 79 50 72c118 171 192 381 192 547v45l-87-2-88-2-6 10-6 10-6-70zm-2031-28c13-178 59-333 146-493 54-99 115-178 211-272l78-78 82-54c192-126 400-199 597-208l55-2 3 67c2 37 0 67-3 67s-49 5-103 11l-97 11-95 30c-215 69-372 179-522 367l-59 73-49 102-49 101-26 99-25 98-7 84-6 84H239l7-87zm905 80 17-4 20-77c11-42 34-115 51-161l30-84 3-38 2-39 40-9 41-9-37-1-38-1v-39l31-17 31-16 34 6 33 7 4-38 4-38 1 62 2 62-22 4-23 4 23 2 22 1v189l-27 4-28 4 28 2 27 1v84c0 46-3 98-6 115l-6 31h-47l-4-17-5-18-1 18-1 17-107-1c-60-1-101-3-92-6zm49-28c0-35 22-84 54-121l26-32 43-21c23-12 36-21 29-21-36 0-114 66-143 120-7 14-16 42-19 63l-7 37h17v-25zm1285-49c-4-45-18-123-31-176l-24-95-55-110-55-110-72-89-72-89-78-61c-178-141-349-212-568-237-52-6-95-11-95-12-1-1 1-30 3-64l4-63h61c232 0 535 130 736 316 226 209 369 499 388 787l6 88-70-2-71-3-7-80zm-592 66-32-3-4-37-4-37-1 38-2 37h-149l-11-20-11-21 3-27 3-27 16 3 16 2 24-23c13-13 32-34 42-46l18-22-7-12-7-12 13 12c7 6 21 36 31 65l18 53 1-20c0-11-13-48-29-82l-30-62 15 6 14 5-5-53c-2-30-7-85-9-123l-5-68-23-25-23-25 37 22c21 12 67 53 102 91l64 69 42 85 42 84 13 73 13 73 1-30c3-82-56-224-134-325l-46-59-54-43-54-42-30-46c-44-66-154-170-180-170-6 0-11-3-11-7 0-5-16-19-35-32l-35-23-30 4-30 5v-9c0-12 36-10 133 7 108 19 195 50 293 106l77 44 68 63 68 63 46 69c25 38 61 103 81 144l35 76 19 93c11 50 20 104 20 120v27h-190v-17l-1-18-12 16-12 17-65-2c-36 0-79-2-97-4zm-465-106 3-105 32-4 32-4-32-1-33-2v-190h18c41 1 61 37 71 131l7 69-15 1h-16l20 10 21 10-4 35-4 35 30 11 30 12-10 25c-12 33-43 56-90 65l-38 7-1-23v-23l-9 23c-5 12-11 22-12 22-2 0-2-47 0-104zm10-323c6-2 18-2 25 0l12 5h-50l13-5zm-36-368-13-15h31v15c0 18-2 18-18 0z"/></g><g fill="#3b353c" transform="matrix(.1 0 0 -.1 0 300)"><path d="M0 1500V0h3000v3000H0V1500zm1543 1393c-13-2-33-2-45 0l-23 4h90l-22-4zm84-9c-3-3-12-4-19-1l-13 5 19 1c11 1 17-2 13-5zm-187-114c0-38 1-70 3-70 151-20 223-27 234-23l13 5v-20l38-8c20-4 42-9 47-10 6-1 15-3 20-4 21-6 31-8 48-9l18-1-6-10-6-10 18-2c10 0 24-1 31-1 7 1 11-1 8-4-6-7 92-55 112-56 6 0 12-4 12-9v-9l9 6 10 5 8-13c10-17 73-61 73-51 0 4 7-1 16-12l15-19-6 15-7 15 19-21c10-12 23-23 29-25 23-8 193-200 241-272 28-42 54-73 57-70 3 4 6-4 6-16v-22l11 6 10 7-2-13c-3-27 1-38 22-58l21-19 2-25 1-25 9 6 9 5-6-17-7-17 9 5 9 6 17-57c9-32 25-81 36-108 10-28 19-62 19-75v-25l30-52 30-53h15c8 0 15-4 15-10v-10l40-6 40-6 11-14c6-8 8-14 4-14s-2-6 4-14l12-14-12-7c-6-4-43-11-81-15l-70-8-10-10c-5-5-20-68-33-138-27-152-60-255-110-344-8-14-25-49-39-77-14-29-30-53-35-53s-11-10-15-22c-9-36-197-258-218-258-5 0-22-13-40-30-17-16-37-30-45-30-7 0-16-7-19-15l-6-14-56-28c-32-15-59-30-62-33-14-15-116-63-196-91l-89-32-80-9c-44-6-101-11-127-13-27-1-51-4-55-5-5-1-11-2-15-1l-8 1V98l-12 4-13 5-3 51-3 52h-40l6 10 6 9h-63c-53-1-103 5-103 11 0 2-27 7-85 15-25 4-54 12-65 18s-27 10-35 9l-16-3-22 21-22 21-9-6-10-5-6 10c-3 5-14 10-24 10s-37 14-59 30c-23 17-42 28-42 25 0-10-44 17-73 44-15 14-32 27-37 27-6 1-15 2-20 3-6 0-15 12-22 26l-11 24-28 10-28 10-23 35c-13 20-31 39-41 42s-28 22-41 42-39 54-58 74c-34 37-112 174-135 235-6 18-18 47-27 65-8 18-21 58-30 88-18 67-57 321-50 332l5 8H90v9c0 13 23 20 53 14l26-5 14 13 13 14 12 115 13 115 29 94c38 120 106 262 171 354 55 77 196 227 215 227 6 0 17 12 24 26l14 26 31 15c16 8 39 23 50 33 20 18 164 94 220 117 17 7 64 23 105 37l75 25 106 15c59 9 118 16 133 16h26v130h20v-70zm2-166 3-44 15-4c8-3 42-7 75-11s88-13 122-22l63-15-5-8-4-7 40-12c134-40 297-140 421-259l79-76 54-81c30-45 69-112 86-150 18-39 37-73 43-77l10-7-6-7-7-6 14-15c8-8 15-20 15-26v-12l-10 15-10 15v-12c0-6 6-18 13-25 6-7 20-29 30-48 21-42 65-104 77-108l8-3 12 57 12 56-11 11-11 11v72l-16 22-16 23 6 14 5 15h-9c-4 0-12 14-15 32-4 18-21 57-37 86l-29 55 5 12 5 13-20 21c-11 12-17 21-14 21 12 0-56 90-75 100l-20 11 3 12 2 12-12-2-12-3-39 53c-40 53-82 96-82 83 0-4-16 9-36 29l-35 35-12-6-12-7 7 8 8 8-18 12c-9 7-30 20-47 31l-29 19 8-14 9-14-32 19c-17 10-31 22-31 27v8l-9-5-9-6-4 10c-2 6-17 13-33 16s-37 12-46 20l-16 14-6-7-7-6v22l-15-5-15-6v23l-10-6-11-7-25 17-26 17-14-6-15-6 7 11 7 12-38-7-37-7 5 8 5 8-114 2-115 2 3-45zm939-411 14-18-17 14c-10 7-18 15-18 17 0 8 8 3 21-13zm-1191 428c-94-22-175-49-220-72-19-11-38-19-42-19-11 0-169-98-202-125l-29-24-9 5c-4 3-8 1-8-3 0-5-35-44-78-88-178-184-284-390-327-634l-13-76 5-51 5-51h12c6 0 27-3 46-6l36-7 13 112c7 62 19 127 26 145 7 17 18 56 25 86l11 55 20 23c10 12 19 29 19 38s16 38 35 65 35 53 35 58c0 13 107 144 157 190 87 83 116 103 248 172 28 15 63 34 80 43 16 9 40 17 53 19 13 1 39 10 59 19 38 18 166 44 221 45h32v28c0 15 3 37 6 50l6 22-73-1-74-1-75-17zm308-98c6-2 18-2 25 0l12 5h-50l13-5zm-219-37c-3-3-36-10-73-15l-67-10-40-20c-21-11-51-23-66-26-15-2-39-13-53-23s-45-29-69-43c-25-13-56-34-69-46-14-13-29-23-34-23-12 0-139-112-133-118 2-2-8-15-24-27-15-13-38-44-51-69s-27-46-31-46c-11 0-99-180-99-203 0-12-10-40-21-64-12-24-19-46-16-49s-1-24-9-46l-14-41v-135l16-6c9-3 47-6 85-6h69l4 23c2 12 9 58 16 102 12 85 29 137 80 249l31 70 56 69c130 159 279 258 456 304l66 17 29 81 30 80-7 7c-9 10-56 20-62 14zm474-41c-5-16-3-34 18-120 6-27 12-57 12-66l1-17 75-43 74-44 67-62c83-77 142-152 190-244l37-72 7 14 6 14 6-13c3-7 25-40 48-75l43-62 36 3 35 3 5-18c2-10 3 0 2 22s2 54 6 71l6 32-22 63c-63 182-190 354-345 469-73 54-194 122-258 144l-43 15-6-14zm-558-189-70-22-89-50-88-49-84-80-84-80-49-83-50-83-30-92-31-92-8-77-8-78h186v33c0 50 27 151 59 221 58 128 126 206 250 288l74 48 64 20c36 11 73 20 82 20h17l2 31 2 30-29 54-30 54 12 5 12 4-20 1c-11 0-51-10-90-23zm588-52-6-17 29-24c16-13 77-55 136-94l107-69 52-58c58-64 56-54-7 28-72 95-176 183-282 239l-22 12-7-17zm-473-125-55-9-90-44-90-44-69-69-68-68-39-65c-21-36-48-92-59-125l-21-60-6-62-6-63 54 1 54 1-23 6-23 7 32 50c17 28 52 71 77 98l46 47h31l23 40 23 40 51 41c65 51 98 68 173 90 33 10 56 18 50 18l-10 1v179c0-1-25-5-55-10zm-31-223c-31-12-70-32-86-44-40-28-98-93-118-133l-17-31 10 6 10 6 20-49c12-26 27-69 34-95l12-46h34l11 46c6 25 23 63 37 85l25 40 46 29c26 17 52 30 59 30 18 0 24 24 24 92v59l-14 15c-19 18-20 18-87-10zm55-185-40-18-35-42-36-41-11-39c-7-21-12-44-12-50v-12l78 3 77 3 16 32 16 32 7-6 6-6 1 29c0 16 2 39 5 52l4 23-16 23-15 24 13 5 13 5-15 1c-8 0-33-8-56-18zm1147-67 1-19 5 13c3 7 2 16-1 19-3 4-6-2-5-13zm-20-30 1-19 5 13c3 7 2 16-1 19-3 4-6-2-5-13zM262 1393l-3-56 16-81c35-183 87-311 192-473 50-78 87-120 186-208 109-97 160-133 247-171 19-9 53-24 75-33 68-31 148-59 185-65 19-3 64-11 100-18l65-13 40 5 40 5 1 53 1 52h-42c-24 0-79 7-122 15-256 48-474 181-643 389-133 164-230 422-230 614v42H265l-3-57zm152-25c6-103 21-195 34-211 5-7 19-40 31-75 12-34 25-70 31-80 5-9 17-34 26-54 9-21 20-38 24-38 5 0 23-26 40-57l32-58 77-74c79-77 84-81 194-144 37-21 67-43 67-48v-10l10 6 10 6v-12c0-7 3-10 6-6 8 8 83-21 106-41l17-14 35-1 35-1-6-9-6-9 21 6 21 7 19-10c20-11 81-16 140-13l32 2v180h-39c-21 0-76 7-122 16l-84 15-92 44-93 44-57 44c-74 57-137 125-193 206l-43 65-34 83c-39 96-63 196-63 271v52H408l6-82zm199 0 6-83 21-70c12-38 42-108 66-155l44-85 76-83c42-45 90-92 108-103l31-21-32 31-33 31v19c0 11-14 55-31 98l-32 78-1 86-1 87-9-6-9-5 5 14 6 14-19 70c-10 39-18 91-18 118l-1 47H607l6-82zm199 8c4-40 12-84 17-97l9-24-1 45c0 61 14 133 27 142l11 8h-71l8-74zm340 67c9-2 19-12 21-21l5-17 1 23 1 22-22-1-23-1 17-5zm48-10c0-10 5-35 11-56l10-38 36-40c41-46 72-63 126-73l37-7v151l-20 20-21 21-9-6-10-6-10 25-10 26h-140v-17zm872-80-11-73-27-67-27-68-43-61c-40-57-156-174-173-174-4 0-22-21-39-47-44-68-154-173-180-173-6 0-12-3-14-8-1-4-16-18-33-31l-30-24 50 8c27 4 83 17 125 29l75 22 89 48 89 49 78 75 79 74 38 62c60 95 99 183 122 273l21 83-3 32-3 33-86 5-85 5-12-72zm-231 60-1-13h-79l-15-22c-21-29-20-44 2-66 9-11 25-29 35-41l18-22-6-9c-4-6-4-10-1-10 16 0 62 159 53 182l-5 13-1-12zm43-3-21-8-7-50-6-50-28-55-28-55 13 5 13 5-5-53c-2-30-7-85-9-123l-5-68-23-26-23-26 35 25c57 39 142 131 179 192 43 73 79 173 87 242l7 55-79-1c-44 0-88-4-100-9zm409-2c-5-7-15-48-21-90l-12-78-30-77c-16-43-47-107-67-143l-38-65-95-95-95-95-57-33c-117-69-237-108-363-119l-75-6V440l23-4c12-3 37-7 55-10l32-6 25 10c14 5 46 12 72 15 27 4 67 15 90 25 23 11 54 22 70 24 39 7 103 37 103 48v9l9-5 9-6 5 13c2 7 30 25 60 40l55 27 101 100c56 55 101 104 101 109s18 32 39 59c73 92 136 243 163 392l14 75-6 30-5 30-76 3-76 3-10-13zm212-10c-2-7-11-49-20-93s-25-114-36-155l-21-75-39-79c-54-108-96-168-179-258l-71-77-81-61c-161-122-344-192-540-207l-78-6v-22c0-12 3-37 6-54l7-31h40c22 0 85 7 140 16l101 16 80 30c44 16 85 33 91 37 5 4 24 13 40 18 17 6 63 32 104 59 40 27 85 57 99 66 41 27 180 167 226 228 49 64 111 168 121 202 4 12 13 32 19 43 7 11 25 61 41 110 15 50 34 110 41 134l14 45v114l-22 6c-13 3-36 6-51 6h-28l-4-12zm-1324-14 1-19 5 13c3 7 2 16-1 19-3 4-6-2-5-13zm259-33-10-20v-113l38 6c20 4 44 9 52 11l15 5-2 45-1 46-18 20-17 19h-46l-11-19zm-250 1c0-7 9-38 21-70 45-124 58-169 61-205l2-36 26-5c14-3 46-8 73-11l47-6v188l-45 5-45 6-41 26-40 27-30 46c-16 26-29 41-29 35zm280-141-35-6-3-92-3-93h18c42 1 62 37 72 131l7 69-10-1c-6-1-27-4-46-8zm-190-209v-21l31-17 31-16 34 6 33 7 4-38 4-38 1 63 2 62h-24c-13 0-44 3-70 6l-46 7v-21zm158 1c6-2 18-2 25 0l12 5h-50l13-5z"/></g></g></svg>